# Blender v2.91.2 OBJ File: 'OperatingTable.blend'
# www.blender.org
mtllib OperatingTable.mtl
o StealthTable_Cube.001
v -0.403806 0.750000 1.883179
v -0.500000 0.850000 2.000000
v -0.403806 0.750000 -1.883179
v -0.500000 0.850000 -2.000000
v 0.403806 0.750000 1.883179
v 0.500000 0.850000 2.000000
v 0.403806 0.750000 -1.883179
v 0.500000 0.850000 -2.000000
v -0.500000 0.750000 -2.000000
v -0.500000 0.750000 2.000000
v 0.500000 0.750000 -2.000000
v 0.500000 0.750000 2.000000
v -0.403806 0.750000 -1.883179
v -0.403806 0.750000 1.883179
v 0.403806 0.750000 -1.883179
v 0.403806 0.750000 1.883179
v -0.403806 0.750000 -1.883179
v -0.403806 0.750000 1.883179
v 0.403806 0.750000 -1.883179
v 0.403806 0.750000 1.883179
v -0.403806 -0.050000 -1.883179
v -0.403806 -0.050000 1.883179
v 0.403806 -0.050000 -1.883179
v 0.403806 -0.050000 1.883179
v -0.050000 1.250000 -2.146585
v -0.050000 1.250000 -2.246584
v 0.050000 1.250000 -2.146585
v 0.050000 1.250000 -2.246584
v 0.050000 1.650000 -2.100000
v 0.050000 1.650000 -2.000000
v -0.050000 1.650000 -2.000000
v -0.050000 1.650000 -2.100000
v -0.050000 0.750000 -2.100000
v 0.050000 0.750000 -2.100000
v 0.050000 0.850000 -2.100000
v -0.050000 0.850000 -2.100000
v 0.050000 0.850000 -2.000000
v 0.050000 0.750000 2.000000
v 0.040381 0.750000 1.883179
v 0.040381 0.750000 1.883179
v 0.040381 0.750000 1.883179
v 0.040381 -0.050000 1.883179
v 0.050000 0.750000 -2.000000
v 0.050000 0.850000 2.000000
v 0.040381 0.750000 -1.883179
v 0.040381 0.750000 -1.883179
v 0.040381 0.750000 -1.883179
v 0.040381 -0.050000 -1.883179
v -0.050000 0.750000 -2.000000
v -0.050000 0.850000 2.000000
v -0.040381 0.750000 -1.883179
v -0.040381 0.750000 -1.883179
v -0.040381 0.750000 -1.883179
v -0.040381 -0.050000 -1.883179
v -0.050000 0.850000 -2.000000
v -0.050000 0.750000 2.000000
v -0.040381 0.750000 1.883179
v -0.040381 0.750000 1.883179
v -0.040381 0.750000 1.883179
v -0.040381 -0.050000 1.883179
v -0.050000 1.775631 -2.000000
v 0.050000 1.775631 -2.000000
v -0.050000 1.775631 -2.100000
v 0.050000 1.775631 -2.100000
v 0.050000 1.650000 -2.000000
v 0.050000 1.650000 -2.100000
v -0.050000 1.650000 -2.100000
v -0.050000 1.650000 -2.000000
v 0.050000 1.775631 -2.000000
v 0.050000 1.775631 -2.100000
v -0.050000 1.775631 -2.100000
v -0.050000 1.775631 -2.000000
v 0.350000 1.650000 -2.000000
v 0.350000 1.650000 -2.100000
v -0.350000 1.650000 -2.100000
v -0.350000 1.650000 -2.000000
v 0.350000 1.775631 -2.000000
v 0.350000 1.775631 -2.100000
v -0.350000 1.775631 -2.100000
v -0.350000 1.775631 -2.000000
v 0.230000 1.775631 -2.100000
v 0.230000 1.650000 -2.100000
v 0.230000 1.650000 -2.000000
v 0.230000 1.775631 -2.000000
v -0.230000 1.775631 -2.000000
v -0.230000 1.650000 -2.000000
v -0.230000 1.775631 -2.100000
v -0.230000 1.650000 -2.100000
vt 0.375000 0.000000
vt 0.625000 0.000000
vt 0.625000 0.250000
vt 0.375000 0.250000
vt 0.375000 0.387500
vt 0.625000 0.387500
vt 0.625000 0.500000
vt 0.375000 0.500000
vt 0.625000 0.750000
vt 0.375000 0.750000
vt 0.375000 0.887500
vt 0.625000 0.887500
vt 0.625000 1.000000
vt 0.375000 1.000000
vt 0.239905 0.725951
vt 0.149049 0.725951
vt 0.149049 0.725951
vt 0.239905 0.725951
vt 0.762500 0.500000
vt 0.875000 0.500000
vt 0.875000 0.750000
vt 0.762500 0.750000
vt 0.149049 0.524049
vt 0.125000 0.750000
vt 0.125000 0.500000
vt 0.239905 0.524049
vt 0.237500 0.500000
vt 0.350951 0.725951
vt 0.350951 0.524049
vt 0.260095 0.725951
vt 0.262500 0.750000
vt 0.260095 0.524049
vt 0.350951 0.524049
vt 0.350951 0.524049
vt 0.260095 0.524049
vt 0.260095 0.524049
vt 0.350951 0.725951
vt 0.149049 0.524049
vt 0.350951 0.725951
vt 0.149049 0.524049
vt 0.149049 0.725951
vt 0.239905 0.725951
vt 0.260095 0.524049
vt 0.350951 0.524049
vt 0.350951 0.725951
vt 0.260095 0.725951
vt 0.239905 0.725951
vt 0.239905 0.524049
vt 0.260095 0.725951
vt 0.260095 0.725951
vt 0.239905 0.524049
vt 0.239905 0.524049
vt 0.237500 0.750000
vt 0.262500 0.500000
vt 0.737500 0.750000
vt 0.737500 0.500000
vt 0.625000 0.862500
vt 0.375000 0.862500
vt 0.625000 0.362500
vt 0.375000 0.362500
vt 0.149049 0.524049
vt 0.149049 0.725951
vt 0.237500 0.500000
vt 0.262500 0.500000
vt 0.625000 0.362500
vt 0.625000 0.387500
vt 0.375000 0.387500
vt 0.375000 0.362500
vt 0.625000 0.362500
vt 0.625000 0.387500
vt 0.737500 0.500000
vt 0.762500 0.500000
vt 0.625000 0.387500
vt 0.625000 0.387500
vt 0.625000 0.387500
vt 0.625000 0.362500
vt 0.625000 0.362500
vt 0.625000 0.362500
vt 0.737500 0.500000
vt 0.762500 0.500000
vt 0.625000 0.362500
vt 0.625000 0.387500
vt 0.762500 0.500000
vt 0.737500 0.500000
vt 0.737500 0.500000
vt 0.762500 0.500000
vt 0.625000 0.362500
vt 0.625000 0.362500
vt 0.737500 0.500000
vt 0.737500 0.500000
vt 0.625000 0.387500
vt 0.625000 0.387500
vt 0.625000 0.387500
vt 0.625000 0.387500
vt 0.737500 0.500000
vt 0.762500 0.500000
vt 0.762500 0.500000
vt 0.625000 0.387500
vt 0.625000 0.387500
vt 0.625000 0.387500
vt 0.762500 0.500000
vt 0.625000 0.362500
vt 0.625000 0.387500
vt 0.625000 0.387500
vt 0.625000 0.362500
vt 0.625000 0.362500
vt 0.625000 0.362500
vt 0.625000 0.362500
vt 0.762500 0.500000
vt 0.762500 0.500000
vt 0.762500 0.500000
vt 0.762500 0.500000
vt 0.625000 0.362500
vt 0.625000 0.362500
vt 0.625000 0.362500
vt 0.737500 0.500000
vt 0.737500 0.500000
vt 0.737500 0.500000
vt 0.737500 0.500000
vt 0.625000 0.387500
vt 0.737500 0.500000
vt 0.762500 0.500000
vt 0.762500 0.500000
vt 0.737500 0.500000
vn -1.0000 0.0000 0.0000
vn 0.0000 0.0000 -1.0000
vn 1.0000 0.0000 0.0000
vn 0.0000 0.0000 1.0000
vn 0.0000 1.0000 0.0000
vn 0.0000 -1.0000 0.0000
vn 0.0000 -0.3441 -0.9389
vn 0.0000 0.3441 0.9389
vn 0.0000 0.3441 -0.9389
vn 0.0000 -0.3441 0.9389
usemtl Bed
s off
f 10/1/1 2/2/1 4/3/1 9/4/1
f 43/5/2 37/6/2 8/7/2 11/8/2
f 11/8/3 8/7/3 6/9/3 12/10/3
f 56/11/4 50/12/4 2/13/4 10/14/4
f 57/15/4 1/16/4 14/17/4 58/18/4
f 55/19/5 4/20/5 2/21/5 50/22/5
f 3/23/6 1/16/6 10/24/6 9/25/6
f 51/26/6 3/23/6 9/25/6 49/27/6
f 5/28/6 7/29/6 11/8/6 12/10/6
f 39/30/6 5/28/6 12/10/6 38/31/6
f 46/32/4 15/33/4 19/34/4 47/35/4
f 45/36/4 7/29/4 15/33/4 46/32/4
f 7/29/4 5/28/4 16/37/4 15/33/4
f 1/16/4 3/23/4 13/38/4 14/17/4
f 15/33/4 16/37/4 20/39/4 19/34/4
f 14/17/4 13/38/4 17/40/4 18/41/4
f 58/18/4 14/17/4 18/41/4 59/42/4
f 48/43/6 23/44/6 24/45/6 42/46/6
f 48/43/6 42/46/6 60/47/6 54/48/6
f 58/18/4 59/42/4 41/49/4 40/50/4
f 45/36/4 46/32/4 52/51/4 51/26/4
f 46/32/4 47/35/4 53/52/4 52/51/4
f 57/15/6 39/30/6 38/31/6 56/53/6
f 45/36/6 51/26/6 49/27/6 43/54/6
f 55/19/5 50/22/5 44/55/5 37/56/5
f 57/15/4 58/18/4 40/50/4 39/30/4
f 44/57/4 50/12/4 56/11/4 38/58/4
f 12/10/4 6/9/4 44/57/4 38/58/4
f 5/28/4 39/30/4 40/50/4 16/37/4
f 8/7/5 37/56/5 44/55/5 6/9/5
f 7/29/6 45/36/6 43/54/6 11/8/6
f 16/37/4 40/50/4 41/49/4 20/39/4
f 9/4/2 4/3/2 55/59/2 49/60/2
f 1/16/6 57/15/6 56/53/6 10/24/6
f 13/38/4 52/51/4 53/52/4 17/40/4
f 3/23/4 51/26/4 52/51/4 13/38/4
f 21/61/6 54/48/6 60/47/6 22/62/6
usemtl Camera_Stand
f 43/54/6 49/27/6 33/63/6 34/64/6
f 36/65/2 35/66/2 34/67/2 33/68/2
f 35/66/7 36/65/7 26/69/7 28/70/7
f 55/19/8 37/56/8 27/71/8 25/72/8
f 27/73/3 28/70/3 29/74/3 30/75/3
f 28/70/9 26/69/9 32/76/9 29/74/9
f 26/69/1 25/77/1 31/78/1 32/76/1
f 37/6/3 35/66/3 28/70/3 27/73/3
f 36/65/1 55/59/1 25/77/1 26/69/1
f 25/72/10 27/71/10 30/79/10 31/80/10
f 37/6/3 43/5/3 34/67/3 35/66/3
f 49/60/1 55/59/1 36/65/1 33/68/1
usemtl Camera_Body
f 29/74/2 32/76/2 63/81/2 64/82/2
f 61/83/5 62/84/5 64/85/5 63/86/5
f 63/81/4 32/76/4 67/87/4 71/88/4
f 31/80/4 30/79/4 62/84/4 61/83/4
f 62/84/4 30/79/4 65/89/4 69/90/4
f 82/91/2 81/92/2 78/93/2 74/94/2
f 64/85/4 62/84/4 69/90/4 70/95/4
f 31/80/4 61/83/4 72/96/4 68/97/4
f 30/75/4 29/74/4 66/98/4 65/99/4
f 29/74/4 64/82/4 70/100/4 66/98/4
f 61/83/4 63/86/4 71/101/4 72/96/4
f 32/76/4 31/78/4 68/102/4 67/87/4
f 73/103/3 74/94/3 78/93/3 77/104/3
f 75/105/1 76/106/1 80/107/1 79/108/1
f 85/109/5 87/110/5 79/111/5 80/112/5
f 88/113/6 86/114/6 76/106/6 75/105/6
f 87/115/2 88/113/2 75/105/2 79/108/2
f 81/116/5 84/117/5 77/118/5 78/119/5
f 83/120/6 82/91/6 74/94/6 73/103/6
f 65/99/6 66/98/6 82/91/6 83/120/6
f 70/95/5 69/90/5 84/117/5 81/116/5
f 69/90/4 65/89/4 83/121/4 84/117/4
f 66/98/2 70/100/2 81/92/2 82/91/2
f 71/88/2 67/87/2 88/113/2 87/115/2
f 67/87/6 68/102/6 86/114/6 88/113/6
f 72/96/5 71/101/5 87/110/5 85/109/5
f 68/97/4 72/96/4 85/109/4 86/122/4
usemtl Base
f 19/34/3 20/39/3 24/45/3 23/44/3
f 18/41/1 17/40/1 21/61/1 22/62/1
f 59/42/4 18/41/4 22/62/4 60/47/4
f 47/35/2 19/34/2 23/44/2 48/43/2
f 59/42/4 60/47/4 42/46/4 41/49/4
f 20/39/4 41/49/4 42/46/4 24/45/4
f 17/40/2 53/52/2 54/48/2 21/61/2
f 47/35/2 48/43/2 54/48/2 53/52/2
usemtl Camera_Eyes
f 86/122/4 85/109/4 80/112/4 76/123/4
f 84/117/4 83/121/4 73/124/4 77/118/4
